<svg width="675" height="675" viewBox="0 0 675 675" fill="none" xmlns="http://www.w3.org/2000/svg">
<path d="M337.5 657.383C503.393 657.383 637.875 579.739 637.875 483.961C637.875 388.184 503.393 310.54 337.5 310.54C171.607 310.54 37.125 388.184 37.125 483.961C37.125 579.739 171.607 657.383 337.5 657.383Z" fill="#F5F5F5"/>
<path d="M129.033 518.373C147.397 518.373 162.283 509.778 162.283 499.176C162.283 488.574 147.397 479.979 129.033 479.979C110.669 479.979 95.7825 488.574 95.7825 499.176C95.7825 509.778 110.669 518.373 129.033 518.373Z" fill="#E6E6E6"/>
<path d="M385.101 396.265L166.563 522.45C165.719 522.917 165.015 523.602 164.526 524.432C164.036 525.263 163.777 526.21 163.777 527.175C163.777 528.14 164.036 529.087 164.526 529.918C165.015 530.748 165.719 531.433 166.563 531.9L295.002 606.055C298.23 607.919 301.892 608.901 305.62 608.901C309.347 608.901 313.009 607.919 316.237 606.055L534.775 479.885C535.619 479.418 536.323 478.733 536.813 477.902C537.303 477.071 537.561 476.124 537.561 475.16C537.561 474.195 537.303 473.248 536.813 472.417C536.323 471.586 535.619 470.901 534.775 470.435L406.35 396.265C403.12 394.399 399.456 393.417 395.725 393.417C391.995 393.417 388.331 394.399 385.101 396.265Z" fill="#E6E6E6"/>
<path d="M319.477 397.494L231.997 448.011C230.239 449.023 228.779 450.481 227.763 452.237C226.748 453.993 226.213 455.986 226.213 458.014C226.213 460.043 226.748 462.036 227.763 463.792C228.779 465.548 230.239 467.006 231.997 468.018L276.048 493.452C278.964 495.131 282.269 496.014 285.633 496.014C288.997 496.014 292.302 495.131 295.218 493.452L382.711 442.935C384.466 441.92 385.923 440.462 386.936 438.706C387.949 436.95 388.482 434.959 388.482 432.932C388.482 430.904 387.949 428.913 386.936 427.157C385.923 425.401 384.466 423.943 382.711 422.928L338.647 397.494C335.734 395.809 332.428 394.922 329.062 394.922C325.697 394.922 322.391 395.809 319.477 397.494Z" fill="#E6E6E6"/>
<path d="M130.788 449.55C130.788 449.55 110.241 429.476 121.932 395.861C128.48 377.028 150.201 363.191 162.567 361.895C158.473 366.759 155.207 372.264 152.901 378.189L137.322 388.543L151.646 384.061L148.595 396.32C148.595 396.32 135.284 404.419 133.313 406.12L147.663 402.3C147.663 402.3 146.556 437.022 130.788 449.55Z" fill="#66DA3D"/>
<path opacity="0.4" d="M130.788 449.55C130.788 449.55 110.241 429.476 121.932 395.861C128.48 377.028 150.201 363.191 162.567 361.895C158.473 366.759 155.207 372.264 152.901 378.189L137.322 388.543L151.646 384.061L148.595 396.32C148.595 396.32 135.284 404.419 133.313 406.12L147.663 402.3C147.663 402.3 146.556 437.022 130.788 449.55Z" fill="black"/>
<path d="M130.788 449.55C130.788 449.55 120.15 407.552 135.891 383.063C135.891 383.009 117.45 404.622 130.788 449.55Z" fill="white"/>
<path d="M154.305 455.18L129.155 454.855H128.898L103.761 455.18C103.761 455.18 103.478 486.149 113.022 498.744C115.722 502.106 121.838 504.455 129.033 504.455C136.229 504.455 142.425 502.092 145.058 498.731C154.575 486.121 154.305 455.18 154.305 455.18Z" fill="#37474F"/>
<path d="M129.033 468.747C142.99 468.747 154.305 462.673 154.305 455.18C154.305 447.686 142.99 441.612 129.033 441.612C115.076 441.612 103.761 447.686 103.761 455.18C103.761 462.673 115.076 468.747 129.033 468.747Z" fill="#455A64"/>
<path d="M129.033 451.575C137.727 451.575 145.085 454.369 147.677 458.23C148.316 457.34 148.669 456.276 148.689 455.18C148.689 449.78 139.887 445.473 129.033 445.473C118.179 445.473 109.35 449.82 109.35 455.18C109.373 456.273 109.72 457.335 110.349 458.23C112.968 454.369 120.339 451.575 129.033 451.575Z" fill="#263238"/>
<path d="M129.033 464.886C139.33 464.886 147.677 461.906 147.677 458.23C147.677 454.555 139.33 451.575 129.033 451.575C118.737 451.575 110.39 454.555 110.39 458.23C110.39 461.906 118.737 464.886 129.033 464.886Z" fill="#E0E0E0"/>
<path d="M129.344 459.905C129.344 459.905 119.597 459.527 111.254 446.594C107.798 441.261 106.137 438.494 106.137 438.494L119.637 437.481L104.436 433.688L97.254 422.698L109.877 421.754C109.877 421.754 100.427 418.46 93.771 418.419C93.771 418.419 82.1205 397.859 78.7185 394.929C87.5224 395.47 96.1285 397.77 104.028 401.693C111.928 405.616 118.962 411.083 124.713 417.771C143.91 440.356 132.179 460.485 129.344 459.905Z" fill="#66DA3D"/>
<path d="M129.343 459.905C129.343 459.905 135.432 423.211 96.5655 401.152C96.5655 401.152 136.903 420.525 129.343 459.905Z" fill="white"/>
<path d="M129.343 459.905C129.343 459.905 138.159 460.472 146.893 449.591C150.498 445.109 152.293 442.733 152.293 442.733L140.143 440.545L154.21 438.548L161.73 429.3L150.43 427.262C150.43 427.262 159.219 425.183 165.28 425.777C165.28 425.777 177.727 408.308 181.075 405.986C173.081 405.648 165.1 406.916 157.603 409.715C150.107 412.513 143.247 416.786 137.43 422.28C118.03 440.897 126.724 460.161 129.343 459.905Z" fill="#66DA3D"/>
<path opacity="0.2" d="M129.343 459.905C129.343 459.905 138.159 460.472 146.893 449.591C150.498 445.109 152.293 442.733 152.293 442.733L140.143 440.545L154.21 438.548L161.73 429.3L150.43 427.262C150.43 427.262 159.219 425.183 165.28 425.777C165.28 425.777 177.727 408.308 181.075 405.986C173.081 405.648 165.1 406.916 157.603 409.715C150.107 412.513 143.247 416.786 137.43 422.28C118.03 440.897 126.724 460.161 129.343 459.905Z" fill="black"/>
<path d="M129.344 459.905C129.344 459.905 127.292 426.236 164.444 409.955C164.444 409.982 126.225 423.671 129.344 459.905Z" fill="white"/>
<path d="M174.028 161.19V228.258L115.938 261.792V194.724L174.028 161.19Z" fill="#FAFAFA"/>
<path d="M167.738 164.821V224.626L115.938 254.529V194.724L167.738 164.821ZM170.883 159.421L112.833 192.955V260.023L115.979 261.846L174.029 228.312V161.19L170.883 159.367V159.421Z" fill="#E0E0E0"/>
<path d="M170.883 166.631V226.435L119.084 256.338V196.533L170.883 166.631ZM174.029 161.231L115.979 194.765V261.832L174.029 228.299V161.19V161.231Z" fill="#EBEBEB"/>
<path d="M165.497 212.908L121.554 238.275L134.541 204.511L143.532 215.176L152.726 202.095L165.497 212.908Z" fill="#E0E0E0"/>
<path d="M150.255 191.835C150.176 193.231 149.768 194.589 149.064 195.797C148.36 197.005 147.38 198.03 146.205 198.787C143.991 200.056 142.155 199.03 142.155 196.465C142.236 195.072 142.646 193.717 143.349 192.511C144.053 191.305 145.031 190.283 146.205 189.526C148.5 188.244 150.255 189.284 150.255 191.835Z" fill="#E0E0E0"/>
<path d="M193.401 77.6925V131.112L147.136 157.828V104.395L193.401 77.6925Z" fill="#FAFAFA"/>
<path d="M188.392 80.5815V128.25L147.15 152.05V104.395L188.406 80.5815M190.917 76.2345L144.625 102.951V156.384L147.136 157.829L193.401 131.112V77.679L190.903 76.2345H190.917Z" fill="#E0E0E0"/>
<path d="M190.904 82.026V129.668L149.634 153.495V105.84L190.904 82.026ZM193.401 77.679L147.15 104.396V157.829L193.415 131.112V77.679H193.401Z" fill="#EBEBEB"/>
<path d="M186.61 118.894L151.605 139.104L161.946 112.198L169.114 120.703L176.431 110.268L186.61 118.894Z" fill="#E0E0E0"/>
<path d="M174.474 102.1C174.415 103.21 174.094 104.29 173.538 105.252C172.982 106.214 172.206 107.03 171.275 107.635C169.506 108.661 168.089 107.824 168.089 105.799C168.145 104.691 168.463 103.612 169.017 102.65C169.571 101.688 170.344 100.87 171.275 100.264C173.043 99.2385 174.474 100.075 174.474 102.1Z" fill="#E0E0E0"/>
<path d="M291.802 386.545L310.581 501.147C310.719 501.985 311.15 502.747 311.798 503.296C312.446 503.845 313.269 504.146 314.118 504.144C314.62 504.143 315.117 504.037 315.575 503.831C316.034 503.626 316.444 503.326 316.779 502.952C317.114 502.577 317.366 502.137 317.519 501.658C317.673 501.18 317.723 500.674 317.668 500.175L304.493 381.942L291.802 386.545Z" fill="#263238"/>
<path d="M356.63 348.003L375.421 462.605C375.556 463.442 375.985 464.203 376.631 464.752C377.277 465.302 378.097 465.603 378.945 465.602C379.449 465.601 379.946 465.494 380.406 465.288C380.865 465.082 381.276 464.781 381.611 464.405C381.947 464.029 382.199 463.586 382.351 463.106C382.503 462.626 382.552 462.119 382.495 461.619L369.32 343.399L356.63 348.003Z" fill="#263238"/>
<path d="M262.98 359.748L244.444 458.5C244.32 459.193 243.956 459.819 243.415 460.269C242.874 460.718 242.191 460.962 241.488 460.958C241.055 460.956 240.628 460.862 240.234 460.681C239.841 460.5 239.491 460.237 239.208 459.91C238.926 459.582 238.716 459.197 238.595 458.782C238.473 458.367 238.443 457.93 238.504 457.502L252.193 365.971L262.98 359.748Z" fill="#263238"/>
<path d="M328.536 322.907L310.109 421.052C309.984 421.744 309.62 422.37 309.079 422.82C308.538 423.269 307.855 423.513 307.152 423.508C306.721 423.507 306.294 423.413 305.902 423.233C305.51 423.053 305.161 422.791 304.878 422.465C304.596 422.139 304.386 421.756 304.264 421.342C304.141 420.929 304.109 420.493 304.169 420.066L317.75 329.116L328.536 322.907Z" fill="#263238"/>
<path d="M323.19 315.427C318.941 313.547 315.266 310.574 312.541 306.81C309.816 303.046 308.138 298.627 307.678 294.003C304.695 263.925 294.097 201.96 258.214 222.588C213.907 248.049 229.77 321.989 236.209 345.695C237.641 351.035 240.432 355.914 244.309 359.856C252.315 367.956 268.879 381.807 297.067 393.606C300.525 395.051 304.371 395.279 307.975 394.254C321.975 390.272 358.546 378.054 376.825 354.699C377.86 353.375 378.33 351.696 378.133 350.027C377.936 348.359 377.087 346.835 375.772 345.789C368.388 339.93 351.688 328.144 323.19 315.427Z" fill="#5B5050"/>
<path opacity="0.5" d="M323.19 315.427C318.941 313.547 315.266 310.574 312.541 306.81C309.816 303.046 308.138 298.627 307.678 294.003C304.695 263.925 294.097 201.96 258.214 222.588C213.907 248.049 229.77 321.988 236.209 345.694C237.641 351.035 240.432 355.914 244.309 359.856C252.315 367.956 268.879 381.807 297.067 393.606C300.525 395.051 304.371 395.279 307.975 394.254C321.975 390.272 358.547 378.054 376.826 354.699C377.86 353.375 378.33 351.696 378.133 350.027C377.936 348.359 377.087 346.835 375.772 345.789C368.388 339.93 351.688 328.144 323.19 315.427Z" fill="black"/>
<path opacity="0.6" d="M378.148 350.473C378.227 352.003 377.747 353.51 376.798 354.712C375.826 355.968 374.787 357.17 373.72 358.358C373.126 359.006 372.532 359.64 371.911 360.261C371.304 360.882 370.683 361.489 370.048 362.097L368.131 363.879C367.47 364.46 366.781 365.04 366.12 365.607C355.765 374.288 343.17 380.902 332.005 385.668L329.926 386.545L329.71 386.627L327.793 387.409L327.456 387.531L325.674 388.233L325.269 388.395L323.608 389.016L323.122 389.192L321.583 389.758L321.03 389.961L319.612 390.461L319.032 390.663L317.682 391.108L317.047 391.325L315.859 391.716L315.184 391.945L314.118 392.283L313.389 392.513L312.471 392.81L311.688 393.039L310.918 393.282L309.96 393.566L309.474 393.701C309.015 393.849 308.556 393.971 308.124 394.092C304.519 395.117 300.674 394.889 297.216 393.444C269.028 381.632 252.463 367.794 244.458 359.694C240.58 355.752 237.789 350.873 236.358 345.532C229.918 321.826 214.056 247.887 258.363 222.426C259.146 221.985 259.915 221.58 260.671 221.211L261.171 220.968C261.927 220.617 262.656 220.293 263.385 220.01L263.601 219.929C264.289 219.672 264.951 219.443 265.653 219.254L265.963 219.159C266.692 218.956 267.408 218.795 268.11 218.66H268.299C269.697 218.409 271.118 218.31 272.538 218.362H272.619C273.988 218.414 275.347 218.622 276.669 218.984C269.595 215.865 260.955 216 252.369 220.927C208.062 246.388 223.924 320.328 230.364 344.034L231.457 348.084C233.655 356.312 238.516 363.58 245.281 368.752L256.783 377.541C269.138 386.959 282.655 394.746 297 400.707C300.467 402.168 304.328 402.406 307.948 401.382C321.934 397.4 358.533 385.182 376.798 361.827C377.587 360.833 378.058 359.624 378.148 358.358V350.46V350.473Z" fill="black"/>
<path d="M402.583 435.078C399.559 415.786 395.685 384.952 393.471 366.727C393.327 365.53 393.125 364.343 392.864 363.164C391.698 358.133 389.514 353.395 386.447 349.241C383.38 345.088 379.494 341.606 375.03 339.012L329.589 312.012L298.741 295.812C298.741 295.812 290.533 319.599 300.091 334.152C308.029 346.302 343.075 361.26 353.497 366.323C363.919 371.385 364.135 372.748 363.919 379.512C363.703 386.275 363.69 394.888 376.488 421.861C380.173 429.61 382.738 435.362 384.52 439.857C390.909 440.351 397.275 438.666 402.583 435.078Z" fill="#9141D0"/>
<path opacity="0.7" d="M402.583 435.078C399.559 415.786 395.685 384.952 393.471 366.727C393.254 364.937 392.911 363.164 392.445 361.422C389.787 351.995 383.566 343.973 375.097 339.052L329.589 311.958L298.741 295.758C298.741 295.758 290.533 319.545 300.091 334.098C308.029 346.248 343.075 361.206 353.497 366.268C363.919 371.331 364.135 372.694 363.919 379.458C363.703 386.221 363.69 394.835 376.488 421.808C380.173 429.557 382.738 435.307 384.52 439.803C390.902 440.313 397.269 438.647 402.583 435.078Z" fill="black"/>
<path d="M388.53 455.504C388.511 456.304 388.701 457.095 389.084 457.798C390.895 460.859 393.204 463.597 395.915 465.898C402.044 471.42 422.334 493.033 429.462 479.614C429.462 479.614 408.497 459.54 405.729 451.264C404.357 445.932 403.307 440.523 402.584 435.064C397.258 438.63 390.881 440.286 384.494 439.762C388.422 449.55 388.598 452.723 388.53 455.504Z" fill="#FFA8A7"/>
<path d="M410.4 454.181L409.819 452.439C409.586 451.8 409.12 451.272 408.514 450.961C407.908 450.651 407.208 450.581 406.552 450.765L398.061 453.384C397.528 453.549 397.062 453.88 396.731 454.33C396.401 454.78 396.223 455.323 396.225 455.882V456.732C396.221 457.134 396.059 457.519 395.773 457.802C395.488 458.085 395.102 458.244 394.699 458.244C392.901 458.245 391.159 457.62 389.772 456.476L388.584 455.504V452.534C387.818 453.033 387.197 453.725 386.782 454.54C386.368 455.355 386.174 456.264 386.221 457.178C386.329 459.189 386.424 461.646 386.343 462.578C386.208 464.36 384.547 471.785 386.532 473.985C388.516 476.186 392.971 476.442 398.479 475.848C403.987 475.254 410.008 480.668 415.111 482.679C420.214 484.691 441.355 489.011 441.301 475.497C441.301 472.055 437.886 470.651 434.551 469.436C431.217 468.221 419.148 463.968 416.056 461.417C414.814 460.383 413.662 459.245 412.614 458.014C411.63 456.895 410.877 455.592 410.4 454.181Z" fill="#455A64"/>
<path d="M415.058 482.72C409.955 480.708 403.934 475.295 398.426 475.889C392.918 476.483 388.463 476.226 386.478 474.026C385.842 473.112 385.511 472.02 385.533 470.907C385.438 472.986 385.601 474.957 386.478 475.956C388.463 478.156 392.918 478.413 398.426 477.819C403.934 477.225 409.955 482.652 415.058 484.65C420.161 486.648 441.302 490.981 441.248 477.468C441.234 477.273 441.207 477.079 441.167 476.888C439.844 488.7 419.985 484.65 415.058 482.72Z" fill="#263238"/>
<path d="M361.314 458.487C358.277 439.209 354.416 408.375 352.188 390.136C351.024 380.553 346.291 371.76 338.931 365.513L284.405 319.154L255.258 318.6C255.258 318.6 249.251 342.9 258.782 357.439C266.733 369.589 301.766 384.561 312.188 389.61C322.61 394.659 322.826 396.05 322.61 402.8C322.394 409.55 322.38 418.176 335.192 445.149C338.864 452.911 341.429 458.649 343.211 463.145C349.597 463.677 355.977 462.036 361.314 458.487Z" fill="#9141D0"/>
<path opacity="0.7" d="M361.314 458.487C358.277 439.209 354.416 408.375 352.188 390.136C351.024 380.553 346.291 371.76 338.931 365.513L284.405 319.154L255.258 318.6C255.258 318.6 249.251 342.9 258.782 357.439C266.733 369.589 301.766 384.561 312.188 389.61C322.61 394.659 322.826 396.05 322.61 402.8C322.394 409.55 322.38 418.176 335.192 445.149C338.864 452.911 341.429 458.649 343.211 463.145C349.597 463.677 355.977 462.036 361.314 458.487Z" fill="black"/>
<path d="M347.234 477.171C347.234 477.981 346.68 480.37 347.801 481.221C349.232 482.287 350.595 485.703 354.645 489.321C360.761 494.842 367.227 482.949 364.446 474.7C363.082 469.367 362.036 463.958 361.314 458.5C355.982 462.063 349.602 463.719 343.211 463.198C347.153 472.945 347.315 474.403 347.234 477.171Z" fill="#FFA8A7"/>
<path d="M311.202 218.052C315.373 217.389 319.644 218.228 323.256 220.418C326.867 222.608 329.585 226.008 330.926 230.013C332.851 235.797 334.088 241.787 334.611 247.86C336.191 266.558 336.623 275.899 336.623 275.899L355.401 284.418C355.401 284.418 345.263 284.904 345.951 299.268L322.556 293.368L311.202 218.052Z" fill="#FFA8A7"/>
<path d="M337.311 264.6C334.544 244.35 333.45 233.752 331.074 228.73C329.443 224.976 326.596 221.881 322.991 219.944C319.385 218.006 315.232 217.34 311.202 218.052L318.276 273.672L319.181 273.591C325.445 272.973 331.346 270.361 336.015 266.139L337.311 264.6Z" fill="#9141D0"/>
<path opacity="0.2" d="M337.311 264.6C334.544 244.35 333.45 233.752 331.074 228.73C329.443 224.976 326.596 221.881 322.991 219.944C319.385 218.006 315.232 217.34 311.202 218.052L318.276 273.672L319.181 273.591C325.445 272.973 331.346 270.361 336.015 266.139L337.311 264.6Z" fill="black"/>
<path d="M336.622 275.899C334.513 276.548 332.603 277.724 331.074 279.315C331.074 279.315 333.342 275.009 336.474 273.672L336.622 275.899Z" fill="#F28F8F"/>
<path d="M266.085 234.455L287.091 224.276L304.398 218.295C304.398 218.295 318.276 213.88 321.813 232.362C324.743 247.549 325.121 305.262 325.121 305.262L324.81 311.566C324.81 311.566 316.805 334.003 288.198 335.866C259.592 337.729 254.016 325.66 254.016 325.66C254.016 325.66 251.1 249.291 266.085 234.455Z" fill="#9141D0"/>
<path d="M332.276 172.8C332.276 172.8 338.769 189.445 329.805 196.776C320.841 204.106 324 174.596 324 174.596L332.276 172.8Z" fill="#263238"/>
<path d="M388.543 267.962L189 383.17V408.132V529.43C189.009 529.911 189.157 530.379 189.425 530.779C189.693 531.178 190.07 531.493 190.512 531.684C191.653 532.267 192.916 532.571 194.198 532.571C195.479 532.571 196.742 532.267 197.883 531.684C198.322 531.491 198.697 531.176 198.962 530.776C199.228 530.376 199.373 529.909 199.382 529.43V414.139L307.57 476.55V599.036C307.583 599.514 307.731 599.98 307.999 600.377C308.267 600.774 308.643 601.086 309.082 601.277C310.224 601.86 311.487 602.164 312.768 602.164C314.049 602.164 315.312 601.86 316.453 601.277C316.893 601.086 317.269 600.774 317.537 600.377C317.805 599.98 317.953 599.514 317.965 599.036V476.55L501.876 370.373V486.473C501.891 486.952 502.044 487.418 502.317 487.813C502.59 488.208 502.971 488.516 503.415 488.7C504.556 489.283 505.819 489.587 507.1 489.587C508.382 489.587 509.645 489.283 510.786 488.7C511.226 488.511 511.603 488.199 511.871 487.802C512.14 487.404 512.288 486.938 512.298 486.459V339.43L388.543 267.962Z" fill="#455A64"/>
<path d="M316.453 601.303C315.312 601.887 314.049 602.19 312.768 602.19C311.487 602.19 310.224 601.887 309.082 601.303C307.044 600.129 307.044 598.225 309.082 597.051C310.224 596.468 311.487 596.164 312.768 596.164C314.049 596.164 315.312 596.468 316.453 597.051C318.492 598.225 318.492 600.129 316.453 601.303Z" fill="#455A64"/>
<path d="M317.992 473.566H307.57V599.062H317.992V473.566Z" fill="#37474F"/>
<path d="M194.224 532.575C197.102 532.575 199.435 531.227 199.435 529.564C199.435 527.902 197.102 526.554 194.224 526.554C191.347 526.554 189.013 527.902 189.013 529.564C189.013 531.227 191.347 532.575 194.224 532.575Z" fill="#455A64"/>
<path d="M199.435 403.961H189.013V529.456H199.435V403.961Z" fill="#263238"/>
<path d="M510.786 488.7C509.645 489.283 508.382 489.587 507.1 489.587C505.819 489.587 504.556 489.283 503.415 488.7C501.376 487.525 501.376 485.622 503.415 484.447C504.556 483.864 505.819 483.56 507.1 483.56C508.382 483.56 509.645 483.864 510.786 484.447C512.824 485.635 512.824 487.539 510.786 488.7Z" fill="#455A64"/>
<path d="M512.325 360.977H501.903V486.473H512.325V360.977Z" fill="#37474F"/>
<path d="M383.4 393.741C382.375 394.26 381.242 394.531 380.092 394.531C378.943 394.531 377.81 394.26 376.785 393.741C374.962 392.688 374.962 391.041 376.785 389.934C377.808 389.408 378.942 389.134 380.092 389.134C381.243 389.134 382.377 389.408 383.4 389.934C385.168 390.987 385.168 392.688 383.4 393.741Z" fill="#455A64"/>
<path d="M384.723 287.01H375.367V391.743H384.723V287.01Z" fill="#455A64"/>
<path d="M189 383.17V408.132L312.782 479.601V454.626L189 383.17Z" fill="#263238"/>
<path d="M512.325 339.43L312.781 454.626V479.601L512.325 364.392V339.43Z" fill="#37474F"/>
<path d="M388.544 267.962L189 383.17L312.782 454.626L512.325 339.43L388.544 267.962Z" fill="#455A64"/>
<path d="M288.441 345.708L333.828 371.911L409.279 328.266L363.906 301.536L288.441 345.708Z" fill="#EBEBEB"/>
<path d="M328.941 338.243L345.964 328.415L335.3 322.259L318.276 332.087L328.941 338.243Z" fill="#E0E0E0"/>
<path d="M335.759 365.364L312.822 351.864L357.642 324.729L335.759 365.364Z" fill="#E0E0E0"/>
<path d="M348.597 281.178L366.754 289.696C372.179 291.065 377.528 292.719 382.779 294.651C382.779 294.651 395.415 299.808 395.995 303.196C396.576 306.585 386.545 314.753 377.676 310.784C375.358 309.541 372.877 308.632 370.305 308.084C367.942 307.827 360.855 306.734 355.792 301.86L334.611 296.352C334.611 296.352 333.558 283.284 348.597 281.178Z" fill="#FFA8A7"/>
<path d="M360.355 306.45C362.448 308.705 368.455 314.388 369.805 316.035C371.155 317.682 374.206 313.457 368.793 307.152C364.107 305.436 359.699 303.039 355.711 300.038C357.093 302.291 358.646 304.434 360.355 306.45Z" fill="#FFA8A7"/>
<path d="M308.637 198.193H287.091V224.276H308.637V198.193Z" fill="#FFA8A7"/>
<path d="M308.651 224.276C304.256 222.635 300.24 220.121 296.845 216.884C293.45 213.647 290.747 209.755 288.9 205.443V198.193H308.705L308.651 224.276Z" fill="#F28F8F"/>
<path d="M315.9 163.755C315.9 163.755 335.502 166.118 331.007 199.611C328.928 215.096 324.783 222.926 312.849 221.603C299.349 220.091 280.625 209.588 283.527 183.047C286.43 156.506 315.9 163.755 315.9 163.755Z" fill="#FFA8A7"/>
<path d="M316.994 193.617L316.292 205.187L323.19 203.526L316.994 193.617Z" fill="#F28F8F"/>
<path d="M306.734 192.577C306.705 193.044 306.815 193.509 307.051 193.912C307.287 194.316 307.637 194.641 308.057 194.846C308.477 195.051 308.949 195.126 309.412 195.063C309.875 194.999 310.309 194.8 310.659 194.49C311.009 194.18 311.259 193.773 311.377 193.321C311.495 192.868 311.477 192.391 311.324 191.949C311.171 191.508 310.891 191.121 310.518 190.839C310.146 190.556 309.698 190.391 309.231 190.363C308.606 190.327 307.993 190.539 307.524 190.954C307.056 191.369 306.772 191.953 306.734 192.577Z" fill="#263238"/>
<path d="M322.326 191.889C322.298 192.355 322.408 192.819 322.643 193.222C322.878 193.626 323.228 193.95 323.647 194.155C324.066 194.36 324.537 194.436 325 194.374C325.463 194.311 325.896 194.113 326.247 193.805C326.597 193.496 326.848 193.09 326.967 192.639C327.087 192.188 327.071 191.711 326.92 191.269C326.769 190.828 326.491 190.44 326.12 190.157C325.749 189.873 325.303 189.705 324.837 189.675C324.527 189.655 324.215 189.696 323.921 189.797C323.627 189.897 323.355 190.055 323.122 190.261C322.888 190.466 322.698 190.716 322.561 190.995C322.425 191.275 322.345 191.579 322.326 191.889Z" fill="#263238"/>
<path d="M327.861 187.299L323.419 184.275C323.419 184.275 325.296 182.547 326.997 183.762C327.48 184.196 327.821 184.766 327.976 185.397C328.13 186.028 328.09 186.691 327.861 187.299Z" fill="#263238"/>
<path d="M308.367 186.772L303.574 189.175C303.574 189.175 302.981 186.691 304.857 185.814C305.47 185.6 306.134 185.577 306.761 185.749C307.387 185.92 307.947 186.277 308.367 186.772Z" fill="#263238"/>
<path d="M316.629 209.885C313.931 209.911 311.302 209.031 309.164 207.387C309.164 207.387 308.408 211.356 311.702 212.315C314.996 213.273 316.629 209.885 316.629 209.885Z" fill="#F28F8F"/>
<path d="M286.862 193.347C286.862 193.347 289.872 199.625 291.735 199.409C293.598 199.193 291.735 175.365 295.596 175.216C299.457 175.068 317.682 184.113 333.788 172.436C339.984 167.954 341.213 156.506 337.5 157.586C333.788 158.666 328.779 161.919 322.015 161.46C315.252 161.001 291.573 150.012 285.701 165.51C285.701 165.51 272.606 164.444 277.52 190.445C278.748 196.911 282.609 212.922 287.091 214.501L286.862 193.347Z" fill="#263238"/>
<path d="M287.928 199.071C288.002 197.107 287.638 195.152 286.862 193.347C286.473 192.236 285.769 191.261 284.837 190.542C283.905 189.823 282.784 189.391 281.61 189.297C275.562 189.135 274.739 194.967 274.86 197.032C275.076 202.432 279.491 208.372 287.699 208.602L287.928 199.071Z" fill="#FFA8A7"/>
<path d="M289.791 315.779L305.235 328.05C307.876 328.299 310.493 328.75 313.065 329.4C316.021 330.278 323.77 333.126 325.822 333.572C327.874 334.017 325.228 337.622 319.855 336.272C319.855 336.272 331.114 343.98 330.966 347.409C330.817 350.838 319.261 356.697 311.458 350.946C309.448 349.266 307.218 347.867 304.83 346.788C302.562 346.046 295.906 343.467 291.951 337.635L278.451 330.602C278.451 330.602 274.644 314.658 289.791 315.779Z" fill="#FFA8A7"/>
<path d="M272.943 231.134C272.943 231.134 281.947 238.113 276.412 259.807C270.877 281.502 267.921 300.199 267.921 300.199L289.791 315.779C286.797 317.089 284.185 319.14 282.202 321.738C280.218 324.336 278.927 327.395 278.451 330.629C278.451 330.629 243.972 317.128 243.27 308.367C242.568 299.605 250.465 261.995 251.667 255.069C252.868 248.144 258.997 234.414 272.943 231.134Z" fill="#FFA8A7"/>
<path d="M267.921 300.2C265.195 299.665 262.388 299.692 259.672 300.28C262.261 298.875 265.165 298.155 268.11 298.188L267.921 300.2Z" fill="#F28F8F"/>
<path d="M419.85 278.276L411.952 329.913C411.964 329.943 411.964 329.977 411.952 330.007L333.45 375.462C333.43 375.472 333.409 375.476 333.387 375.475C333.365 375.473 333.344 375.466 333.326 375.453C333.308 375.441 333.294 375.424 333.285 375.404C333.276 375.384 333.272 375.362 333.275 375.34L340.929 325.255C341.091 324.188 341.485 323.168 342.082 322.268C342.679 321.368 343.465 320.61 344.385 320.045L416.286 275.954C416.663 275.706 417.105 275.574 417.556 275.573C418.007 275.573 418.449 275.703 418.827 275.95C419.205 276.196 419.503 276.547 419.685 276.96C419.867 277.373 419.924 277.83 419.85 278.276Z" fill="#FAFAFA"/>
<path d="M333.45 375.462L291.6 351.162C290.635 350.602 289.835 349.798 289.278 348.832C288.721 347.865 288.428 346.769 288.427 345.654L333.815 371.858L333.45 375.462Z" fill="#E0E0E0"/>
<path d="M374.449 328.05C374.449 331.749 377.041 333.234 380.227 331.398C381.912 330.301 383.315 328.823 384.321 327.082C385.328 325.342 385.909 323.388 386.019 321.381C386.019 317.682 383.427 316.197 380.227 318.033C378.546 319.133 377.148 320.612 376.144 322.353C375.14 324.093 374.56 326.044 374.449 328.05Z" fill="#E0E0E0"/>
<path d="M287.779 173.084C287.779 173.084 284.215 167.819 286.429 166.118C288.643 164.417 290.25 169.83 287.779 173.084Z" fill="#263238"/>
<path d="M288.373 174.15C288.373 174.15 282.082 173.367 282.231 170.613C282.379 167.859 287.55 170.181 288.373 174.15Z" fill="#263238"/>
<path d="M287.091 224.276C287.091 224.276 291.722 236.425 302.387 234.913C313.052 233.401 308.651 224.276 308.651 224.276H287.091Z" fill="#FFA8A7"/>
<path d="M272.943 231.134C272.943 231.134 279.963 234.495 278.883 248.616C277.803 262.737 272.227 291.195 272.227 291.195C272.227 291.195 247.104 301.374 244.701 287.023C244.093 283.311 250.425 248.981 255.838 241.718C257.826 238.889 260.366 236.492 263.306 234.673C266.246 232.854 269.524 231.65 272.943 231.134Z" fill="#9141D0"/>
<path opacity="0.2" d="M272.943 231.134C272.943 231.134 279.963 234.495 278.883 248.616C277.803 262.737 272.227 291.195 272.227 291.195C272.227 291.195 247.104 301.374 244.701 287.023C244.093 283.311 250.425 248.981 255.838 241.718C257.826 238.889 260.366 236.492 263.306 234.673C266.246 232.854 269.524 231.65 272.943 231.134Z" fill="black"/>
<path d="M347.801 477.9C348.743 479.329 350.189 480.35 351.851 480.762C353.376 481.005 350.298 477.049 353.97 475.456C357.642 473.863 366.053 471.69 366.809 474.849L367.74 478.791C368.618 482.518 370.398 485.971 372.924 488.848C375.375 491.815 378.166 494.484 381.24 496.8C386.046 499.891 393.944 507.384 383.805 513.769C373.667 520.155 361.22 514.755 358.776 507.505C356.333 500.256 353.754 498.15 352.458 496.948C349.727 495.032 347.781 492.194 346.977 488.956C346.318 485.749 345.868 482.502 345.627 479.236C345.576 478.577 345.705 477.916 346 477.325C346.295 476.733 346.744 476.232 347.301 475.875L347.801 477.9Z" fill="#455A64"/>
<path d="M383.859 513.742C373.72 520.114 361.273 514.728 358.83 507.478C356.386 500.229 353.808 498.123 352.512 496.921C350.223 495.267 348.465 492.983 347.449 490.347C347.449 490.536 347.449 490.752 347.449 490.941C347.841 497.218 351.688 498.69 352.984 499.905C354.28 501.12 356.413 503.091 358.857 510.354C361.3 517.617 374.152 522.126 384.277 515.754C389.205 512.662 389.866 509.301 388.705 506.304C388.948 508.747 387.706 511.326 383.859 513.742Z" fill="#263238"/>
<path opacity="0.7" d="M335.151 417.366L302.859 436.05L262.089 412.506L294.489 393.822C294.913 393.583 295.392 393.458 295.879 393.458C296.367 393.458 296.845 393.583 297.27 393.822L335.191 415.719C335.332 415.807 335.447 415.931 335.526 416.077C335.604 416.224 335.644 416.388 335.64 416.554C335.635 416.72 335.588 416.882 335.503 417.025C335.417 417.167 335.296 417.285 335.151 417.366Z" fill="black"/>
<path d="M332.91 416.691L302.859 434.039L264.911 412.142L295.029 394.753C295.419 394.522 295.865 394.399 296.318 394.399C296.772 394.399 297.217 394.522 297.608 394.753L332.91 415.125C333.047 415.204 333.161 415.319 333.241 415.456C333.32 415.593 333.362 415.749 333.362 415.908C333.362 416.067 333.32 416.223 333.241 416.36C333.161 416.497 333.047 416.612 332.91 416.691Z" fill="white"/>
<path d="M302.859 434.038V430.65L333.369 413.046V415.921L302.859 434.038Z" fill="white"/>
<path d="M302.859 434.039V430.65L264.911 408.753V412.142L302.859 434.039Z" fill="#E0E0E0"/>
<path d="M335.151 412.006L302.859 430.65L262.089 407.119L294.489 388.436C294.913 388.197 295.392 388.071 295.879 388.071C296.367 388.071 296.845 388.197 297.27 388.436L335.151 410.4C335.285 410.487 335.395 410.606 335.471 410.746C335.547 410.887 335.587 411.044 335.587 411.203C335.587 411.363 335.547 411.52 335.471 411.66C335.395 411.8 335.285 411.919 335.151 412.006Z" fill="#2361FF"/>
<path opacity="0.5" d="M335.151 412.006L302.859 430.65L262.089 407.119L294.489 388.436C294.913 388.197 295.392 388.071 295.879 388.071C296.367 388.071 296.845 388.197 297.27 388.436L335.151 410.4C335.285 410.487 335.395 410.606 335.471 410.746C335.547 410.887 335.587 411.044 335.587 411.203C335.587 411.363 335.547 411.52 335.471 411.66C335.395 411.8 335.285 411.919 335.151 412.006Z" fill="black"/>
<path d="M298.633 433.58C298.541 433.626 298.44 433.65 298.336 433.65C298.233 433.65 298.132 433.626 298.039 433.58C297.922 433.517 297.824 433.423 297.755 433.309C297.686 433.195 297.649 433.065 297.648 432.931V429.84C297.655 429.149 297.838 428.471 298.181 427.871C298.523 427.271 299.014 426.768 299.605 426.411L299.727 426.33C299.783 426.299 299.846 426.284 299.909 426.285C299.973 426.286 300.035 426.304 300.09 426.337C300.145 426.37 300.19 426.416 300.221 426.472C300.252 426.527 300.268 426.59 300.267 426.654C300.267 426.822 300.334 426.984 300.453 427.103C300.572 427.222 300.733 427.289 300.901 427.289C301.07 427.289 301.231 427.222 301.35 427.103C301.469 426.984 301.536 426.822 301.536 426.654C301.539 426.366 301.464 426.082 301.319 425.832C301.174 425.583 300.964 425.377 300.712 425.236C300.466 425.088 300.184 425.009 299.896 425.009C299.608 425.009 299.325 425.088 299.079 425.236L298.957 425.304C298.173 425.77 297.522 426.431 297.07 427.224C296.618 428.017 296.38 428.914 296.379 429.827V432.891C296.379 433.253 296.477 433.609 296.662 433.92C296.847 434.231 297.113 434.487 297.432 434.659C297.723 434.814 298.048 434.893 298.377 434.889C298.776 434.892 299.166 434.774 299.497 434.552C299.619 434.469 299.706 434.344 299.74 434.201L298.633 433.58Z" fill="white"/>
<path d="M292.599 430.096C292.507 430.143 292.405 430.167 292.302 430.167C292.199 430.167 292.097 430.143 292.005 430.096C291.888 430.034 291.789 429.94 291.72 429.826C291.652 429.712 291.615 429.582 291.613 429.448V426.384C291.618 425.691 291.8 425.01 292.143 424.407C292.486 423.804 292.977 423.3 293.571 422.942H293.692C293.748 422.911 293.811 422.895 293.875 422.895C293.938 422.895 294.001 422.911 294.057 422.942C294.11 422.974 294.155 423.019 294.185 423.074C294.216 423.128 294.232 423.19 294.232 423.252C294.232 423.42 294.299 423.582 294.418 423.701C294.537 423.82 294.699 423.886 294.867 423.886C295.035 423.886 295.197 423.82 295.316 423.701C295.435 423.582 295.501 423.42 295.501 423.252C295.492 422.975 295.412 422.705 295.267 422.469C295.123 422.232 294.92 422.037 294.678 421.902C294.432 421.753 294.149 421.674 293.861 421.674C293.573 421.674 293.291 421.753 293.044 421.902L292.923 421.97C292.138 422.435 291.488 423.097 291.036 423.89C290.584 424.683 290.345 425.579 290.344 426.492V429.556C290.344 429.919 290.442 430.274 290.628 430.586C290.813 430.897 291.079 431.152 291.397 431.325C291.688 431.48 292.013 431.559 292.342 431.555C292.741 431.557 293.132 431.44 293.463 431.217C293.585 431.134 293.671 431.009 293.706 430.866L292.599 430.096Z" fill="white"/>
<path d="M286.564 426.6C286.472 426.643 286.37 426.666 286.267 426.666C286.165 426.666 286.063 426.643 285.97 426.6C285.853 426.537 285.755 426.444 285.686 426.33C285.617 426.216 285.58 426.085 285.579 425.952V422.887C285.583 422.194 285.766 421.513 286.108 420.911C286.451 420.308 286.943 419.803 287.536 419.445L287.658 419.377C287.714 419.347 287.777 419.331 287.84 419.331C287.904 419.331 287.967 419.347 288.022 419.377C288.076 419.41 288.12 419.455 288.151 419.51C288.182 419.564 288.198 419.626 288.198 419.688C288.198 419.856 288.265 420.018 288.384 420.137C288.503 420.256 288.664 420.322 288.832 420.322C289.001 420.322 289.162 420.256 289.281 420.137C289.4 420.018 289.467 419.856 289.467 419.688C289.458 419.411 289.377 419.141 289.233 418.905C289.089 418.668 288.886 418.473 288.643 418.338C288.397 418.189 288.115 418.11 287.827 418.11C287.539 418.11 287.256 418.189 287.01 418.338L286.888 418.405C286.104 418.871 285.453 419.533 285.001 420.326C284.549 421.119 284.311 422.015 284.31 422.928V425.992C284.31 426.355 284.408 426.71 284.593 427.022C284.779 427.333 285.044 427.588 285.363 427.761C285.654 427.916 285.979 427.995 286.308 427.99C286.707 427.993 287.097 427.876 287.428 427.653C287.55 427.57 287.637 427.445 287.671 427.302L286.564 426.6Z" fill="white"/>
<path d="M280.53 423.13C280.437 423.174 280.336 423.196 280.233 423.196C280.13 423.196 280.029 423.174 279.936 423.13C279.819 423.068 279.72 422.974 279.651 422.86C279.583 422.746 279.546 422.616 279.545 422.483V419.418C279.549 418.725 279.731 418.044 280.074 417.441C280.417 416.838 280.908 416.334 281.502 415.976L281.624 415.908C281.679 415.877 281.742 415.861 281.806 415.861C281.869 415.861 281.932 415.877 281.988 415.908C282.041 415.94 282.086 415.986 282.116 416.04C282.147 416.095 282.163 416.156 282.163 416.219C282.163 416.387 282.23 416.548 282.349 416.667C282.468 416.786 282.63 416.853 282.798 416.853C282.966 416.853 283.128 416.786 283.247 416.667C283.366 416.548 283.433 416.387 283.433 416.219C283.423 415.942 283.343 415.672 283.198 415.435C283.054 415.199 282.851 415.003 282.609 414.869C282.363 414.72 282.08 414.641 281.792 414.641C281.504 414.641 281.222 414.72 280.976 414.869L280.854 414.936C280.069 415.402 279.419 416.063 278.967 416.856C278.515 417.649 278.276 418.546 278.276 419.458V422.523C278.276 422.885 278.373 423.241 278.559 423.552C278.744 423.863 279.01 424.119 279.329 424.292C279.619 424.446 279.944 424.525 280.274 424.521C280.672 424.524 281.063 424.406 281.394 424.183C281.516 424.101 281.602 423.976 281.637 423.833L280.53 423.13Z" fill="white"/>
<path d="M274.496 419.647C274.403 419.691 274.301 419.713 274.199 419.713C274.096 419.713 273.995 419.691 273.902 419.647C273.784 419.585 273.686 419.491 273.617 419.377C273.548 419.263 273.511 419.133 273.51 418.999V415.935C273.514 415.242 273.697 414.561 274.039 413.958C274.382 413.355 274.874 412.851 275.468 412.492H275.589C275.645 412.462 275.708 412.446 275.771 412.446C275.835 412.446 275.898 412.462 275.954 412.492C276.007 412.525 276.051 412.57 276.082 412.625C276.113 412.679 276.129 412.741 276.129 412.803C276.129 412.971 276.196 413.133 276.315 413.252C276.434 413.371 276.595 413.437 276.764 413.437C276.932 413.437 277.093 413.371 277.212 413.252C277.331 413.133 277.398 412.971 277.398 412.803C277.389 412.526 277.308 412.256 277.164 412.02C277.02 411.783 276.817 411.588 276.575 411.453C276.328 411.304 276.046 411.225 275.758 411.225C275.47 411.225 275.187 411.304 274.941 411.453L274.82 411.52C274.035 411.986 273.384 412.648 272.932 413.441C272.48 414.234 272.242 415.13 272.241 416.043V419.108C272.241 419.47 272.339 419.825 272.524 420.137C272.71 420.448 272.976 420.703 273.294 420.876C273.587 421.025 273.91 421.103 274.239 421.105C274.638 421.108 275.028 420.991 275.36 420.768C275.481 420.685 275.568 420.56 275.603 420.417L274.496 419.647Z" fill="white"/>
<path d="M268.461 416.164C268.368 416.208 268.267 416.23 268.164 416.23C268.061 416.23 267.96 416.208 267.867 416.164C267.75 416.102 267.651 416.008 267.582 415.894C267.514 415.78 267.477 415.65 267.475 415.516V412.425C267.48 411.732 267.662 411.051 268.005 410.448C268.348 409.845 268.839 409.341 269.433 408.983L269.554 408.915C269.61 408.884 269.673 408.868 269.737 408.868C269.8 408.868 269.863 408.884 269.919 408.915C269.974 408.945 270.02 408.99 270.051 409.045C270.082 409.1 270.097 409.163 270.094 409.225C270.094 409.394 270.161 409.555 270.28 409.674C270.399 409.793 270.561 409.86 270.729 409.86C270.897 409.86 271.059 409.793 271.178 409.674C271.297 409.555 271.363 409.394 271.363 409.225C271.349 408.945 271.264 408.673 271.115 408.434C270.965 408.196 270.758 408 270.512 407.865C270.265 407.73 269.989 407.66 269.708 407.661C269.427 407.663 269.151 407.737 268.906 407.875L268.785 407.956C268 408.422 267.35 409.084 266.898 409.877C266.446 410.67 266.207 411.566 266.206 412.479V415.543C266.206 415.906 266.304 416.261 266.49 416.573C266.675 416.884 266.941 417.139 267.259 417.312C267.552 417.461 267.876 417.539 268.204 417.541C268.603 417.544 268.994 417.427 269.325 417.204C269.447 417.121 269.533 416.996 269.568 416.853L268.461 416.164Z" fill="white"/>
<path d="M339.309 403.583L304.398 423.738L258.957 397.508L293.882 377.352L339.309 403.583Z" fill="#E6E6E6"/>
<path d="M341.32 402.921L304.843 420.093L261.751 390.136L298.242 372.978L341.32 402.921Z" fill="#FAFAFA"/>
<path d="M259.875 349.312H230.242L232.942 380.673C233.118 381.667 233.531 382.603 234.147 383.403C234.763 384.202 235.563 384.84 236.479 385.263C239.148 386.62 242.099 387.328 245.092 387.328C248.086 387.328 251.037 386.62 253.705 385.263C254.62 384.837 255.418 384.198 256.034 383.399C256.649 382.601 257.064 381.666 257.242 380.673L259.875 349.312Z" fill="#6A331B"/>
<path d="M261.765 347.598V345.114H261.184C260.226 343.266 258.723 341.758 256.878 340.794C250.357 337.027 239.773 337.027 233.253 340.794C231.405 341.753 229.9 343.263 228.946 345.114H228.352V347.625C228.352 350.082 229.986 352.552 233.253 354.442C239.773 358.209 250.357 358.209 256.878 354.442C260.145 352.552 261.778 350.069 261.765 347.598Z" fill="#E0E0E0"/>
<path d="M256.878 352.08C250.357 355.846 239.773 355.846 233.253 352.08C226.732 348.313 226.719 342.212 233.253 338.445C239.787 334.679 250.357 334.665 256.878 338.445C263.398 342.225 263.398 348.3 256.878 352.08Z" fill="#EBEBEB"/>
<path d="M258.457 344.25V342.265H257.985C257.216 340.785 256.009 339.578 254.529 338.809C251.601 337.324 248.363 336.549 245.079 336.549C241.795 336.549 238.557 337.324 235.629 338.809C234.144 339.572 232.936 340.781 232.173 342.265H231.701V344.25C231.701 346.234 233.05 348.219 235.629 349.717C238.557 351.203 241.795 351.978 245.079 351.978C248.363 351.978 251.601 351.203 254.529 349.717C257.148 348.192 258.457 346.207 258.457 344.25Z" fill="#E0E0E0"/>
<path d="M254.529 347.814C251.601 349.3 248.363 350.074 245.079 350.074C241.795 350.074 238.557 349.3 235.629 347.814C230.391 344.804 230.391 339.903 235.629 336.893C238.557 335.407 241.795 334.632 245.079 334.632C248.363 334.632 251.601 335.407 254.529 336.893C259.754 339.903 259.754 344.804 254.529 347.814Z" fill="#F5F5F5"/>
<path d="M252.342 346.221C250.085 347.365 247.59 347.962 245.059 347.962C242.528 347.962 240.033 347.365 237.776 346.221C233.874 343.98 233.725 340.389 237.37 338.121C237.499 338.026 237.635 337.94 237.776 337.864C238.659 337.362 239.603 336.971 240.584 336.703C244.509 335.596 248.708 336.011 252.342 337.864C256.378 340.2 256.378 343.899 252.342 346.221Z" fill="#F0F0F0"/>
<path d="M237.775 339.012C240.033 337.861 242.531 337.261 245.065 337.261C247.6 337.261 250.098 337.861 252.355 339.012C253.086 339.354 253.731 339.855 254.243 340.479C254.754 341.103 255.12 341.833 255.312 342.616C255.622 340.902 254.623 339.12 252.355 337.81C250.094 336.671 247.598 336.078 245.065 336.078C242.533 336.078 240.037 336.671 237.775 337.81C235.494 339.16 234.508 340.902 234.805 342.616C234.999 341.832 235.367 341.1 235.881 340.477C236.395 339.853 237.042 339.352 237.775 339.012Z" fill="#E0E0E0"/>
<path d="M243.283 339.404L240.3 341.307L237.384 339.215V338.067C237.513 337.972 237.648 337.886 237.789 337.81C238.673 337.308 239.616 336.917 240.597 336.649V337.5L243.283 339.404Z" fill="#E0E0E0"/>
<path d="M595.161 155.25L427.113 58.158C426.405 57.6361 425.549 57.3546 424.67 57.3546C423.79 57.3546 422.934 57.6361 422.226 58.158L416.408 62.208L420.377 67.122V202.595C420.377 207.563 423.401 213.394 427.127 215.473L593.514 311.539L593.825 316.818L599.954 312.62C600.657 311.958 601.2 311.145 601.542 310.242C601.883 309.339 602.014 308.37 601.925 307.408V168.061C601.911 163.093 598.887 157.329 595.161 155.25Z" fill="#9141D0"/>
<path opacity="0.3" d="M595.161 155.25L427.113 58.158C426.405 57.6361 425.549 57.3546 424.67 57.3546C423.79 57.3546 422.934 57.6361 422.226 58.158L416.408 62.208L420.377 67.122V202.595C420.377 207.563 423.401 213.394 427.127 215.473L593.514 311.539L593.825 316.818L599.954 312.62C600.657 311.958 601.2 311.145 601.542 310.242C601.883 309.339 602.014 308.37 601.925 307.408V168.061C601.911 163.093 598.887 157.329 595.161 155.25Z" fill="black"/>
<path d="M589.437 316.44L421.389 219.416C417.677 217.269 414.639 211.505 414.639 206.537V67.1895C414.639 62.235 417.663 59.9535 421.389 62.1L589.437 159.125C593.163 161.271 596.187 167.036 596.187 172.004V311.337C596.187 316.305 593.163 318.6 589.437 316.44Z" fill="#9141D0"/>
<path d="M589.437 316.44L421.389 219.416C417.677 217.269 414.639 211.505 414.639 206.537V67.1895C414.639 62.235 417.663 59.9535 421.389 62.1L589.437 159.125C593.163 161.271 596.187 167.036 596.187 172.004V311.337C596.187 316.305 593.163 318.6 589.437 316.44Z" fill="#9141D0"/>
<path d="M589.437 159.125L421.389 62.1C417.677 59.9535 414.639 62.235 414.639 67.1895V73.9395L596.174 178.74V171.99C596.187 167.036 593.163 161.271 589.437 159.125Z" fill="#455A64"/>
<path d="M418.716 62.64C419.424 62.6733 420.112 62.8871 420.714 63.261L588.762 160.286C592.056 162.189 594.837 167.549 594.837 172.004V311.337C594.837 314.037 593.77 315.9 592.137 315.9C591.423 315.866 590.73 315.648 590.125 315.266L422.064 218.241C418.783 216.351 416.002 210.978 416.002 206.537V67.1895C416.002 64.422 417.069 62.64 418.702 62.64M418.702 61.29C416.313 61.29 414.652 63.4905 414.652 67.1895V206.55C414.652 211.518 417.676 217.283 421.402 219.429L589.437 316.44C590.249 316.944 591.181 317.224 592.137 317.25C594.526 317.25 596.187 315.036 596.187 311.337V172.004C596.187 167.036 593.163 161.204 589.437 159.125L421.389 62.1C420.578 61.5921 419.645 61.3123 418.689 61.29H418.702Z" fill="#9141D0"/>
<path d="M492.561 135C492.31 135.005 492.062 134.939 491.845 134.811L427.869 97.929C427.569 97.726 427.357 97.4168 427.276 97.0637C427.195 96.7107 427.251 96.34 427.433 96.0266C427.614 95.7131 427.908 95.4802 428.254 95.3748C428.601 95.2693 428.975 95.2993 429.3 95.4585L493.277 132.395C493.565 132.544 493.794 132.788 493.926 133.086C494.058 133.383 494.084 133.717 494.001 134.031C493.917 134.346 493.729 134.622 493.468 134.816C493.206 135.009 492.886 135.107 492.561 135.095V135Z" fill="white"/>
<path d="M582.566 187.029C582.313 187.03 582.065 186.96 581.85 186.826L534.465 159.475C534.136 159.286 533.895 158.973 533.796 158.606C533.698 158.239 533.749 157.847 533.939 157.518C534.128 157.189 534.441 156.948 534.808 156.849C535.175 156.751 535.567 156.802 535.896 156.992L583.281 184.356C583.57 184.506 583.799 184.75 583.931 185.047C584.062 185.345 584.088 185.678 584.005 185.993C583.922 186.307 583.734 186.584 583.472 186.777C583.21 186.97 582.891 187.069 582.566 187.056V187.029Z" fill="white"/>
<path d="M524.907 153.738C524.657 153.735 524.411 153.67 524.191 153.549L504.9 142.425C504.724 142.339 504.567 142.217 504.44 142.068C504.312 141.918 504.217 141.744 504.16 141.556C504.103 141.368 504.085 141.171 504.107 140.976C504.13 140.781 504.192 140.592 504.291 140.422C504.389 140.253 504.521 140.105 504.679 139.988C504.837 139.872 505.018 139.789 505.209 139.745C505.4 139.701 505.599 139.697 505.792 139.733C505.985 139.769 506.168 139.844 506.331 139.955L525.582 151.065C525.871 151.215 526.1 151.459 526.231 151.756C526.363 152.054 526.389 152.387 526.306 152.702C526.223 153.016 526.035 153.293 525.773 153.486C525.511 153.679 525.192 153.778 524.866 153.765L524.907 153.738Z" fill="white"/>
<path d="M492.561 224.654C492.31 224.652 492.064 224.587 491.845 224.465L427.869 187.529C427.569 187.326 427.357 187.016 427.276 186.663C427.195 186.31 427.251 185.94 427.433 185.626C427.614 185.313 427.908 185.08 428.254 184.974C428.601 184.869 428.975 184.899 429.3 185.058L493.277 221.981C493.604 222.172 493.842 222.486 493.938 222.853C494.035 223.22 493.981 223.61 493.789 223.938C493.672 224.16 493.494 224.344 493.277 224.471C493.06 224.597 492.812 224.66 492.561 224.654Z" fill="white"/>
<path d="M582.566 276.615C582.314 276.62 582.066 276.554 581.85 276.426L534.465 249.075C534.136 248.885 533.895 248.572 533.796 248.205C533.698 247.838 533.749 247.447 533.939 247.118C534.128 246.788 534.441 246.548 534.808 246.449C535.175 246.35 535.567 246.401 535.896 246.591L583.281 273.955C583.607 274.145 583.846 274.455 583.944 274.819C584.043 275.183 583.994 275.571 583.808 275.899C583.681 276.117 583.499 276.297 583.282 276.422C583.064 276.548 582.817 276.614 582.566 276.615Z" fill="white"/>
<path d="M524.907 243.324C524.656 243.329 524.408 243.263 524.191 243.135L504.9 232.024C504.724 231.938 504.567 231.817 504.44 231.667C504.312 231.518 504.217 231.344 504.16 231.156C504.103 230.968 504.085 230.77 504.107 230.575C504.13 230.38 504.192 230.192 504.291 230.022C504.389 229.852 504.521 229.704 504.679 229.588C504.837 229.471 505.018 229.388 505.209 229.344C505.4 229.301 505.599 229.296 505.792 229.333C505.985 229.369 506.168 229.444 506.331 229.554L525.582 240.665C525.908 240.854 526.146 241.164 526.245 241.528C526.344 241.892 526.295 242.28 526.108 242.609C525.985 242.82 525.81 242.996 525.6 243.121C525.39 243.246 525.151 243.316 524.907 243.324Z" fill="white"/>
<path d="M492.561 245.7C492.31 245.705 492.062 245.639 491.846 245.511L427.869 208.589C427.54 208.399 427.299 208.086 427.2 207.719C427.102 207.352 427.153 206.96 427.343 206.631C427.532 206.302 427.845 206.061 428.212 205.962C428.579 205.864 428.971 205.915 429.3 206.105L493.277 243C493.565 243.15 493.794 243.394 493.926 243.691C494.058 243.989 494.084 244.322 494.001 244.637C493.917 244.951 493.729 245.228 493.468 245.421C493.206 245.614 492.886 245.713 492.561 245.7Z" fill="white"/>
<path d="M562.397 286.038C562.145 286.043 561.897 285.977 561.681 285.849L534.465 270.135C534.289 270.049 534.132 269.927 534.005 269.778C533.877 269.628 533.782 269.454 533.725 269.266C533.668 269.078 533.65 268.881 533.673 268.686C533.695 268.491 533.757 268.302 533.856 268.132C533.954 267.963 534.087 267.815 534.245 267.698C534.403 267.582 534.583 267.499 534.774 267.455C534.966 267.411 535.164 267.407 535.357 267.443C535.55 267.479 535.733 267.555 535.896 267.665L563.112 283.379C563.275 283.471 563.418 283.595 563.533 283.743C563.647 283.891 563.732 284.06 563.781 284.241C563.83 284.422 563.842 284.61 563.818 284.796C563.793 284.982 563.732 285.161 563.639 285.323C563.512 285.54 563.33 285.72 563.113 285.845C562.895 285.971 562.648 286.037 562.397 286.038Z" fill="white"/>
<path d="M524.907 264.398C524.657 264.394 524.411 264.329 524.191 264.209L504.9 253.098C504.571 252.908 504.33 252.595 504.231 252.228C504.133 251.861 504.184 251.47 504.373 251.141C504.563 250.811 504.876 250.571 505.243 250.472C505.61 250.373 506.002 250.424 506.331 250.614L525.582 261.725C525.871 261.874 526.1 262.118 526.231 262.416C526.363 262.713 526.389 263.047 526.306 263.361C526.223 263.676 526.035 263.952 525.773 264.146C525.511 264.339 525.192 264.437 524.866 264.425L524.907 264.398Z" fill="white"/>
<path d="M460.661 127.778C460.408 127.778 460.16 127.708 459.945 127.575L427.869 109.067C427.621 108.846 427.458 108.546 427.408 108.218C427.357 107.89 427.421 107.555 427.59 107.27C427.759 106.984 428.022 106.766 428.334 106.653C428.646 106.54 428.987 106.539 429.3 106.65L461.376 125.159C461.704 125.35 461.942 125.664 462.038 126.031C462.134 126.398 462.081 126.788 461.889 127.116C461.764 127.328 461.583 127.501 461.367 127.618C461.15 127.734 460.906 127.79 460.661 127.778Z" fill="white"/>
<path d="M553.041 181.116C552.791 181.113 552.545 181.048 552.325 180.927L504.9 153.563C504.724 153.476 504.567 153.355 504.44 153.205C504.312 153.056 504.217 152.882 504.16 152.694C504.103 152.506 504.085 152.308 504.107 152.113C504.13 151.918 504.192 151.73 504.291 151.56C504.389 151.39 504.521 151.242 504.679 151.126C504.837 151.009 505.018 150.926 505.209 150.882C505.4 150.839 505.599 150.834 505.792 150.871C505.985 150.907 506.168 150.982 506.331 151.092L553.716 178.443C554.005 178.593 554.234 178.837 554.365 179.134C554.497 179.432 554.523 179.765 554.44 180.08C554.357 180.394 554.169 180.671 553.907 180.864C553.645 181.057 553.326 181.156 553 181.143L553.041 181.116Z" fill="white"/>
<path d="M493.007 146.448C492.755 146.453 492.507 146.387 492.291 146.259L473.04 135.149C472.711 134.959 472.47 134.646 472.371 134.279C472.273 133.912 472.324 133.52 472.514 133.191C472.703 132.862 473.016 132.621 473.383 132.522C473.75 132.424 474.142 132.475 474.471 132.664L493.722 143.775C494.05 143.967 494.288 144.28 494.384 144.648C494.48 145.015 494.427 145.405 494.235 145.732C494.117 145.954 493.94 146.139 493.723 146.265C493.506 146.391 493.258 146.455 493.007 146.448Z" fill="white"/>
<path d="M492.561 157.329C492.308 157.33 492.06 157.26 491.846 157.127L427.869 120.15C427.612 119.932 427.44 119.63 427.384 119.297C427.328 118.965 427.391 118.623 427.562 118.333C427.733 118.042 428.001 117.821 428.319 117.709C428.637 117.597 428.985 117.601 429.3 117.72L493.277 154.656C493.604 154.848 493.842 155.161 493.938 155.529C494.035 155.896 493.981 156.286 493.79 156.614C493.672 156.835 493.494 157.02 493.277 157.146C493.06 157.272 492.812 157.336 492.561 157.329Z" fill="white"/>
<path d="M547.803 189.216C547.552 189.221 547.304 189.155 547.088 189.027L534.465 181.737C534.289 181.651 534.132 181.529 534.005 181.38C533.877 181.23 533.782 181.056 533.725 180.868C533.668 180.68 533.65 180.483 533.673 180.288C533.695 180.093 533.757 179.904 533.856 179.734C533.954 179.565 534.087 179.417 534.245 179.3C534.403 179.184 534.583 179.101 534.774 179.057C534.966 179.013 535.164 179.009 535.357 179.045C535.55 179.081 535.733 179.156 535.896 179.266L548.519 186.557C548.845 186.746 549.083 187.056 549.182 187.42C549.28 187.784 549.231 188.172 549.045 188.501C548.918 188.718 548.737 188.898 548.519 189.023C548.301 189.149 548.054 189.215 547.803 189.216Z" fill="white"/>
<path d="M466.965 153.684C466.715 153.681 466.469 153.616 466.249 153.495L453.6 146.205C453.437 146.111 453.294 145.986 453.179 145.837C453.064 145.687 452.98 145.517 452.931 145.335C452.882 145.154 452.87 144.964 452.894 144.777C452.919 144.591 452.98 144.411 453.073 144.248C453.167 144.084 453.293 143.941 453.442 143.827C453.591 143.712 453.761 143.628 453.943 143.579C454.125 143.53 454.315 143.517 454.501 143.542C454.688 143.566 454.868 143.627 455.031 143.721L467.654 151.011C467.942 151.161 468.171 151.405 468.303 151.702C468.435 152 468.461 152.333 468.378 152.648C468.294 152.962 468.106 153.239 467.845 153.432C467.583 153.625 467.263 153.724 466.938 153.711L466.965 153.684Z" fill="white"/>
<path d="M524.907 176C524.657 175.996 524.411 175.931 524.191 175.811L504.9 164.7C504.737 164.606 504.594 164.481 504.479 164.332C504.364 164.182 504.28 164.012 504.231 163.83C504.182 163.649 504.17 163.459 504.194 163.272C504.219 163.086 504.28 162.906 504.373 162.743C504.467 162.579 504.593 162.436 504.742 162.322C504.891 162.207 505.061 162.123 505.243 162.074C505.425 162.025 505.615 162.012 505.801 162.037C505.988 162.061 506.168 162.122 506.331 162.216L525.582 173.327C525.871 173.476 526.1 173.72 526.231 174.018C526.363 174.315 526.389 174.649 526.306 174.963C526.223 175.278 526.035 175.554 525.773 175.748C525.511 175.941 525.192 176.039 524.866 176.027L524.907 176Z" fill="white"/>
<path d="M449.091 143.357C448.84 143.361 448.592 143.296 448.376 143.168L427.869 131.328C427.569 131.125 427.357 130.816 427.276 130.463C427.195 130.11 427.251 129.739 427.433 129.426C427.614 129.112 427.908 128.879 428.254 128.774C428.601 128.668 428.975 128.698 429.3 128.858L449.806 140.697C450.11 140.836 450.354 141.079 450.497 141.381C450.639 141.683 450.67 142.025 450.584 142.348C450.499 142.671 450.302 142.953 450.029 143.145C449.756 143.337 449.424 143.426 449.091 143.397V143.357Z" fill="white"/>
<path d="M493.006 168.75C492.755 168.755 492.507 168.689 492.291 168.561L473.04 157.41C472.864 157.324 472.707 157.202 472.58 157.053C472.452 156.903 472.357 156.729 472.3 156.541C472.243 156.353 472.225 156.156 472.247 155.961C472.27 155.766 472.332 155.577 472.431 155.407C472.529 155.238 472.661 155.09 472.819 154.973C472.977 154.857 473.158 154.774 473.349 154.73C473.54 154.686 473.739 154.682 473.932 154.718C474.125 154.754 474.308 154.829 474.471 154.94L493.722 166.05C494.011 166.2 494.24 166.444 494.371 166.741C494.503 167.039 494.529 167.372 494.446 167.687C494.363 168.001 494.175 168.278 493.913 168.471C493.651 168.664 493.332 168.763 493.006 168.75Z" fill="white"/>
<path d="M492.561 180.401C492.31 180.405 492.062 180.34 491.845 180.212L427.869 143.276C427.569 143.073 427.357 142.763 427.276 142.41C427.195 142.057 427.251 141.687 427.433 141.373C427.614 141.06 427.908 140.827 428.254 140.721C428.601 140.616 428.975 140.646 429.3 140.805L493.277 177.728C493.604 177.919 493.842 178.233 493.938 178.6C494.035 178.967 493.981 179.357 493.789 179.685C493.672 179.907 493.494 180.091 493.277 180.218C493.06 180.344 492.812 180.407 492.561 180.401Z" fill="white"/>
<path d="M582.566 232.362C582.317 232.375 582.069 232.319 581.85 232.2L534.465 204.849C534.136 204.659 533.895 204.346 533.796 203.979C533.698 203.612 533.749 203.221 533.939 202.891C534.128 202.562 534.441 202.322 534.808 202.223C535.175 202.124 535.567 202.175 535.896 202.365L583.281 229.73C583.607 229.919 583.846 230.229 583.944 230.593C584.043 230.957 583.994 231.345 583.808 231.674C583.677 231.886 583.495 232.06 583.277 232.181C583.059 232.302 582.814 232.364 582.566 232.362Z" fill="white"/>
<path d="M524.907 199.071C524.656 199.076 524.408 199.01 524.191 198.882L504.9 187.772C504.724 187.685 504.567 187.564 504.44 187.414C504.312 187.265 504.217 187.091 504.16 186.903C504.103 186.715 504.085 186.517 504.107 186.322C504.13 186.127 504.192 185.939 504.291 185.769C504.389 185.599 504.521 185.451 504.679 185.335C504.837 185.218 505.018 185.135 505.209 185.091C505.4 185.048 505.599 185.043 505.792 185.08C505.985 185.116 506.168 185.191 506.331 185.301L525.582 196.412C525.909 196.603 526.148 196.916 526.246 197.282C526.345 197.649 526.295 198.039 526.108 198.369C525.982 198.576 525.806 198.749 525.596 198.871C525.386 198.994 525.15 199.062 524.907 199.071Z" fill="white"/>
<path d="M460.661 173.11C460.409 173.115 460.161 173.05 459.945 172.921L427.869 154.413C427.54 154.223 427.299 153.91 427.2 153.543C427.102 153.176 427.153 152.785 427.343 152.456C427.532 152.126 427.845 151.886 428.212 151.787C428.579 151.688 428.971 151.739 429.3 151.929L461.376 170.451C461.665 170.601 461.894 170.845 462.025 171.142C462.157 171.44 462.183 171.773 462.1 172.088C462.017 172.402 461.829 172.679 461.567 172.872C461.305 173.065 460.986 173.164 460.661 173.151V173.11Z" fill="white"/>
<path d="M553.041 226.463C552.788 226.463 552.54 226.393 552.325 226.26L504.9 198.909C504.571 198.719 504.33 198.406 504.231 198.039C504.133 197.672 504.184 197.281 504.373 196.952C504.563 196.622 504.876 196.382 505.243 196.283C505.61 196.184 506.002 196.235 506.331 196.425L553.716 223.79C554.005 223.939 554.234 224.183 554.365 224.481C554.497 224.778 554.523 225.112 554.44 225.426C554.357 225.741 554.169 226.017 553.907 226.211C553.645 226.404 553.326 226.502 553 226.49L553.041 226.463Z" fill="white"/>
<path d="M493.006 191.795C492.756 191.791 492.51 191.726 492.291 191.606L473.04 180.482C472.864 180.395 472.707 180.274 472.58 180.124C472.452 179.975 472.357 179.801 472.3 179.613C472.243 179.425 472.225 179.227 472.247 179.032C472.27 178.837 472.332 178.649 472.431 178.479C472.529 178.309 472.661 178.161 472.819 178.045C472.977 177.928 473.158 177.845 473.349 177.801C473.54 177.758 473.739 177.753 473.932 177.79C474.125 177.826 474.308 177.901 474.471 178.011L493.722 189.122C494.05 189.313 494.288 189.627 494.384 189.994C494.48 190.361 494.427 190.751 494.235 191.079C494.117 191.301 493.94 191.485 493.723 191.612C493.506 191.738 493.258 191.801 493.006 191.795Z" fill="white"/>
<path d="M492.561 202.662C492.31 202.667 492.062 202.601 491.845 202.473L427.869 165.537C427.569 165.334 427.357 165.025 427.276 164.672C427.195 164.319 427.251 163.948 427.433 163.635C427.614 163.321 427.908 163.088 428.254 162.983C428.601 162.877 428.975 162.907 429.3 163.067L493.277 200.002C493.565 200.152 493.794 200.396 493.926 200.694C494.058 200.991 494.084 201.325 494.001 201.639C493.917 201.954 493.729 202.23 493.468 202.424C493.206 202.617 492.886 202.715 492.561 202.702V202.662Z" fill="white"/>
<path d="M547.803 234.563C547.553 234.559 547.307 234.494 547.088 234.374L534.465 227.084C534.289 226.997 534.132 226.876 534.005 226.726C533.877 226.577 533.782 226.403 533.725 226.215C533.668 226.027 533.65 225.829 533.673 225.634C533.695 225.439 533.757 225.251 533.856 225.081C533.954 224.911 534.087 224.763 534.245 224.647C534.403 224.53 534.583 224.447 534.774 224.403C534.966 224.36 535.164 224.355 535.357 224.392C535.55 224.428 535.733 224.503 535.896 224.613L548.519 231.89C548.807 232.039 549.036 232.283 549.168 232.581C549.3 232.878 549.326 233.212 549.243 233.526C549.159 233.841 548.971 234.117 548.71 234.311C548.448 234.504 548.128 234.602 547.803 234.59V234.563Z" fill="white"/>
<path d="M466.965 199.03C466.712 199.031 466.464 198.961 466.249 198.828L453.6 191.552C453.271 191.362 453.03 191.049 452.931 190.682C452.833 190.315 452.884 189.923 453.073 189.594C453.263 189.265 453.576 189.024 453.943 188.925C454.31 188.827 454.702 188.878 455.031 189.068L467.654 196.358C467.942 196.507 468.171 196.751 468.303 197.049C468.435 197.346 468.461 197.68 468.378 197.994C468.294 198.309 468.106 198.585 467.845 198.779C467.583 198.972 467.263 199.07 466.938 199.058L466.965 199.03Z" fill="white"/>
<path d="M524.907 221.4C524.657 221.397 524.411 221.332 524.191 221.211L504.9 210.047C504.571 209.857 504.33 209.544 504.231 209.177C504.133 208.81 504.184 208.418 504.373 208.089C504.563 207.76 504.876 207.519 505.243 207.42C505.61 207.322 506.002 207.373 506.331 207.563L525.622 218.7C525.911 218.85 526.14 219.094 526.272 219.391C526.404 219.689 526.43 220.022 526.347 220.337C526.263 220.651 526.075 220.928 525.813 221.121C525.552 221.314 525.232 221.413 524.907 221.4Z" fill="white"/>
<path d="M449.091 188.703C448.84 188.708 448.592 188.642 448.375 188.514L427.869 176.674C427.534 176.485 427.289 176.17 427.186 175.799C427.083 175.428 427.132 175.032 427.322 174.697C427.512 174.362 427.827 174.116 428.198 174.014C428.569 173.911 428.965 173.96 429.3 174.15L449.806 185.976C450.095 186.126 450.324 186.37 450.456 186.667C450.588 186.965 450.614 187.298 450.531 187.613C450.447 187.927 450.259 188.204 449.997 188.397C449.736 188.59 449.416 188.689 449.091 188.676V188.703Z" fill="white"/>
<path d="M493.007 214.056C492.755 214.061 492.507 213.995 492.291 213.867L473.04 202.757C472.711 202.567 472.47 202.254 472.371 201.887C472.273 201.52 472.324 201.128 472.514 200.799C472.703 200.47 473.016 200.229 473.383 200.13C473.75 200.032 474.142 200.083 474.471 200.273L493.722 211.397C494.011 211.546 494.24 211.79 494.371 212.088C494.503 212.385 494.529 212.719 494.446 213.033C494.363 213.348 494.175 213.624 493.913 213.818C493.651 214.011 493.332 214.109 493.007 214.097V214.056Z" fill="white"/>
<path d="M466.965 220.361C466.714 220.365 466.466 220.3 466.25 220.172L453.627 212.882C453.451 212.795 453.294 212.674 453.167 212.524C453.039 212.375 452.944 212.201 452.887 212.013C452.83 211.825 452.812 211.627 452.834 211.432C452.857 211.237 452.919 211.049 453.018 210.879C453.116 210.709 453.249 210.561 453.407 210.445C453.565 210.328 453.745 210.245 453.936 210.201C454.128 210.158 454.326 210.153 454.519 210.19C454.712 210.226 454.895 210.301 455.058 210.411L467.681 217.701C467.984 217.84 468.228 218.083 468.371 218.385C468.513 218.687 468.544 219.029 468.459 219.352C468.373 219.675 468.176 219.957 467.903 220.149C467.63 220.341 467.298 220.43 466.965 220.401V220.361Z" fill="white"/>
<path d="M449.091 210.047C448.841 210.043 448.595 209.978 448.376 209.858L427.869 198.018C427.54 197.828 427.299 197.515 427.2 197.148C427.102 196.781 427.153 196.39 427.343 196.061C427.532 195.731 427.845 195.491 428.212 195.392C428.579 195.293 428.971 195.344 429.3 195.534L449.807 207.374C450.095 207.523 450.324 207.767 450.456 208.065C450.588 208.362 450.614 208.696 450.531 209.01C450.447 209.325 450.259 209.601 449.998 209.795C449.736 209.988 449.416 210.086 449.091 210.074V210.047Z" fill="white"/>
<path d="M493.007 235.4C492.756 235.396 492.51 235.331 492.291 235.211L473.04 224.1C472.711 223.91 472.47 223.597 472.371 223.23C472.273 222.863 472.324 222.472 472.514 222.143C472.703 221.813 473.016 221.573 473.383 221.474C473.75 221.375 474.142 221.426 474.471 221.616L493.722 232.727C494.05 232.918 494.288 233.232 494.384 233.599C494.48 233.966 494.427 234.356 494.235 234.684C494.117 234.906 493.94 235.09 493.723 235.217C493.506 235.343 493.258 235.406 493.007 235.4Z" fill="white"/>
<path d="M441.248 111.821V163.58C441.248 164.417 440.951 164.93 440.478 165.159L438.494 166.253V164.484L438.21 111.267L440.802 109.917C441.092 110.51 441.244 111.161 441.248 111.821Z" fill="#263238"/>
<path d="M440.802 109.958L438.21 111.308L375.448 74.466L373.95 73.602L376.016 72.441H376.083C376.276 72.3383 376.493 72.2927 376.711 72.3094C376.929 72.3261 377.137 72.4046 377.311 72.5355L439.411 108.297C440.028 108.702 440.512 109.279 440.802 109.958Z" fill="#37474F"/>
<path d="M439.007 112.941V164.363C439.035 164.638 438.995 164.915 438.892 165.172C438.788 165.428 438.624 165.655 438.413 165.834H438.291C438.104 165.91 437.901 165.937 437.7 165.913C437.499 165.89 437.308 165.816 437.144 165.699L375.449 130.154C374.881 129.749 374.417 129.217 374.094 128.6C373.77 127.984 373.596 127.299 373.586 126.603V75.2625C373.558 74.9939 373.594 74.7226 373.693 74.4712C373.792 74.2199 373.949 73.9959 374.153 73.818C374.207 73.7692 374.272 73.7325 374.342 73.71C374.524 73.6444 374.72 73.6237 374.913 73.6495C375.106 73.6754 375.289 73.747 375.449 73.8585L437.144 109.35C437.742 109.741 438.211 110.3 438.494 110.957C438.814 111.57 438.989 112.249 439.007 112.941Z" fill="#455A64"/>
<path d="M419.432 111.909L424.684 137.431L427.604 139.109L422.352 113.588L419.432 111.909Z" fill="#FAFAFA"/>
<path d="M374.463 73.764C374.664 73.7698 374.86 73.8305 375.03 73.9395L437.13 109.701C437.676 110.063 438.107 110.573 438.372 111.173C438.657 111.729 438.809 112.343 438.817 112.968V164.7C438.849 164.914 438.829 165.132 438.758 165.337C438.688 165.541 438.569 165.725 438.412 165.875H438.304C438.216 165.896 438.123 165.896 438.034 165.875C437.835 165.859 437.641 165.799 437.467 165.699L375.367 129.924C374.852 129.547 374.43 129.056 374.135 128.489C373.84 127.923 373.68 127.296 373.666 126.657V75.06C373.644 74.8434 373.67 74.6244 373.742 74.419C373.815 74.2135 373.932 74.0267 374.085 73.872H374.206C374.286 73.8531 374.37 73.8531 374.449 73.872M374.449 73.521C374.319 73.5205 374.19 73.5481 374.071 73.602L373.882 73.71C373.682 73.8926 373.528 74.1198 373.432 74.373C373.336 74.6263 373.3 74.8986 373.329 75.168V126.779C373.341 127.478 373.516 128.166 373.84 128.786C374.163 129.407 374.626 129.945 375.192 130.356L437.292 166.118C437.512 166.252 437.763 166.326 438.021 166.334C438.165 166.335 438.307 166.308 438.439 166.253L438.561 166.185C438.773 166.004 438.938 165.775 439.042 165.516C439.145 165.257 439.184 164.977 439.155 164.7V112.968C439.138 112.292 438.972 111.628 438.669 111.024C438.379 110.368 437.912 109.807 437.319 109.404L375.219 73.6425C374.995 73.5032 374.74 73.4241 374.476 73.413L374.449 73.521Z" fill="#37474F"/>
<path d="M431.271 75.1005C431.271 76.572 430.231 77.166 428.962 76.4505C428.281 76.0098 427.716 75.4119 427.314 74.707C426.913 74.0022 426.686 73.2112 426.654 72.4005C426.654 70.929 427.68 70.335 428.962 71.0505C429.639 71.4961 430.201 72.0952 430.602 72.799C431.003 73.5027 431.232 74.2913 431.271 75.1005Z" fill="white"/>
<path d="M439.857 80.3925C439.857 81.864 438.817 82.4715 437.535 81.7425C436.856 81.2993 436.293 80.7008 435.891 79.9965C435.49 79.2922 435.262 78.5024 435.227 77.6925C435.227 76.221 436.266 75.6135 437.535 76.3425C438.216 76.7842 438.782 77.382 439.186 78.0864C439.59 78.7908 439.82 79.5814 439.857 80.3925Z" fill="white"/>
<path d="M448.43 85.698C448.43 87.1695 447.403 87.7635 446.121 87.048C445.444 86.6024 444.883 86.0033 444.482 85.2996C444.08 84.5958 443.851 83.8072 443.812 82.998C443.812 81.5265 444.852 80.9325 446.121 81.648C446.802 82.0887 447.367 82.6867 447.769 83.3915C448.171 84.0963 448.397 84.8874 448.43 85.698Z" fill="white"/>
</svg>
