<?xml version="1.0" standalone="no"?>
<svg xmlns:xlink="http://www.w3.org/1999/xlink" id="wave" style="transform:rotate(0deg); transition: 0.3s" viewBox="0 0 1440 120" version="1.1" xmlns="http://www.w3.org/2000/svg"><defs><linearGradient id="sw-gradient-0" x1="0" x2="0" y1="1" y2="0"><stop stop-color="rgba(145, 65, 208, 1)" offset="0%"/><stop stop-color="rgba(145, 65, 208, 1)" offset="100%"/></linearGradient></defs><path style="transform:translate(0, 0px); opacity:1" fill="url(#sw-gradient-0)" d="M0,72L24,64C48,56,96,40,144,46C192,52,240,80,288,78C336,76,384,44,432,40C480,36,528,60,576,68C624,76,672,68,720,56C768,44,816,28,864,32C912,36,960,60,1008,62C1056,64,1104,44,1152,30C1200,16,1248,8,1296,16C1344,24,1392,48,1440,52C1488,56,1536,40,1584,34C1632,28,1680,32,1728,32C1776,32,1824,28,1872,24C1920,20,1968,16,2016,30C2064,44,2112,76,2160,76C2208,76,2256,44,2304,28C2352,12,2400,12,2448,24C2496,36,2544,60,2592,70C2640,80,2688,76,2736,62C2784,48,2832,24,2880,28C2928,32,2976,64,3024,78C3072,92,3120,88,3168,90C3216,92,3264,100,3312,102C3360,104,3408,100,3432,98L3456,96L3456,120L3432,120C3408,120,3360,120,3312,120C3264,120,3216,120,3168,120C3120,120,3072,120,3024,120C2976,120,2928,120,2880,120C2832,120,2784,120,2736,120C2688,120,2640,120,2592,120C2544,120,2496,120,2448,120C2400,120,2352,120,2304,120C2256,120,2208,120,2160,120C2112,120,2064,120,2016,120C1968,120,1920,120,1872,120C1824,120,1776,120,1728,120C1680,120,1632,120,1584,120C1536,120,1488,120,1440,120C1392,120,1344,120,1296,120C1248,120,1200,120,1152,120C1104,120,1056,120,1008,120C960,120,912,120,864,120C816,120,768,120,720,120C672,120,624,120,576,120C528,120,480,120,432,120C384,120,336,120,288,120C240,120,192,120,144,120C96,120,48,120,24,120L0,120Z"/></svg>